<?xml version="1.0" encoding="UTF-8"?><svg xmlns="http://www.w3.org/2000/svg" xmlns:xlink="http://www.w3.org/1999/xlink" height="495.0" preserveAspectRatio="xMidYMid meet" version="1.0" viewBox="-0.1 -1.0 494.2 495.0" width="494.2" zoomAndPan="magnify"><g id="change1_1"><path d="M0 0H494V346.4H0z" fill="#330712"/></g><g id="change2_1"><path d="M0 346.4H494V494H0z" fill="#A07964"/></g><g fill="#992F39" id="change3_1"><path d="M154.7-1h-54.3H62H0v304.2v16V453c6.7,3.5,15.4,5.1,24.8,5.2c12.4,0.2,25.9-2.2,37.8-6.2 c17.9-6,31.8-15.7,31.6-25.8c-0.8-56.1-41.6-105.5-50.7-115.8C129.4,260.4,154.7-1,154.7-1z" fill="inherit"/><path d="M450.4,310.4c-9.1,10.3-49.9,59.7-50.7,115.8c-0.1,10.1,13.8,19.8,31.6,25.8c11.9,4,25.4,6.4,37.8,6.2 c9.4-0.1,18.2-1.7,24.8-5.2V319.2v-16V-1h-62h-38.4h-54.3C339.3-1,364.6,260.4,450.4,310.4z" fill="inherit"/><path d="M246.7,102.6c87.7,0,159.5-45.4,164.4-102.6H82.3C87.2,57.2,159,102.6,246.7,102.6z" fill="inherit"/></g><g fill="#721724" id="change4_1"><path d="M62-1c0.2,4.2,0.3,9,0.4,14.5c0.1,6.5,0.2,13.8,0.1,21.8c0,8-0.3,16.6-0.6,25.7c-0.4,9.2-0.8,18.8-1.5,28.7 s-1.6,20.3-2.7,30.6c-0.6,5.2-1.2,10.5-1.8,15.8c-0.3,2.6-0.7,5.3-1,7.9c-0.3,2.6-0.7,5.3-1.1,7.9c-0.8,5.3-1.5,10.6-2.5,15.8 c-0.4,2.6-0.9,5.2-1.3,7.9c-0.5,2.6-1,5.2-1.5,7.8c-0.5,2.6-1,5.2-1.5,7.7c-0.5,2.5-1.1,5.1-1.6,7.6c-1,5.1-2.2,10-3.4,14.9 c-1.1,4.9-2.4,9.6-3.6,14.3c-1.2,4.7-2.6,9.2-3.8,13.6c-0.7,2.2-1.2,4.4-1.9,6.5c-0.7,2.1-1.4,4.2-2,6.3c-0.7,2.1-1.3,4.1-2,6.1 s-1.4,3.9-2,5.8c-0.7,1.9-1.3,3.7-2,5.5c-0.6,1.8-1.3,3.6-2,5.3c-1.3,3.4-2.6,6.6-3.8,9.7c-0.3,0.8-0.6,1.5-0.9,2.2 s-0.6,1.4-0.9,2.1c-0.6,1.4-1.2,2.7-1.8,4c-1.1,2.6-2.2,5-3.1,7.1c-1,2.1-3.2,5.2-3.2,5.2l-4.8,5.6c0,0,0.4,0.5,1.2,1.4 c0.8,0.9,2,2.2,3.4,3.9c0.7,0.9,1.4,1.9,2.2,3c0.4,0.5,0.8,1.1,1.2,1.7c0.4,0.6,0.8,1.2,1.2,1.9c0.4,0.6,0.8,1.3,1.3,2 c0.4,0.7,0.9,1.4,1.3,2.2c0.8,1.5,1.7,3.1,2.6,4.8c0.8,1.7,1.6,3.5,2.4,5.4c0.8,1.9,1.5,3.9,2.3,5.9c0.7,2,1.3,4.2,2,6.3 c0.6,2.2,1.2,4.5,1.8,6.7c0.5,2.3,1,4.7,1.4,7.1c0.2,1.2,0.4,2.4,0.6,3.6l0.3,1.8l0.2,1.9c0.3,2.5,0.7,5,0.8,7.5 c0.1,1.3,0.2,2.5,0.3,3.8l0.2,3.8c0.3,5.1,0.3,10.2,0.3,15.2c-0.1,5-0.3,9.9-0.6,14.7c-0.1,1.2-0.2,2.4-0.3,3.5 c-0.1,1.2-0.2,2.3-0.3,3.5c-0.2,2.3-0.5,4.5-0.7,6.7c-0.5,4.4-1.1,8.5-1.7,12.2c-1,6.2-2,11.5-2.9,15.6c12.4,0.2,25.9-2.2,37.8-6.2 c0-2.3-0.1-4.8-0.2-7.4c-0.1-4.2-0.4-8.8-0.7-13.6c-0.2-2.4-0.4-4.9-0.6-7.4c-0.1-1.3-0.3-2.5-0.4-3.8c-0.2-1.3-0.3-2.6-0.5-3.9 c-0.6-5.2-1.5-10.7-2.4-16.1c-1-5.5-2.1-11-3.5-16.5l-1-4.1c-0.4-1.4-0.8-2.7-1.2-4.1c-0.7-2.7-1.6-5.4-2.5-8l-0.7-2l-0.7-2 c-0.5-1.3-1-2.6-1.4-3.9c-1-2.6-2.1-5-3.1-7.5c-1.1-2.4-2.3-4.8-3.4-7.1c-1.2-2.3-2.4-4.5-3.6-6.6c-1.3-2.1-2.5-4.1-3.8-6.1 c-1.3-1.9-2.6-3.7-3.9-5.4s-2.6-3.2-3.9-4.8c-0.6-0.8-1.3-1.4-1.9-2.1c-0.6-0.7-1.2-1.3-1.8-2c-0.6-0.6-1.2-1.2-1.7-1.8 c-0.6-0.5-1.2-1.1-1.7-1.6c-1.1-1,2.1-4.8,3.8-7.7c1.2-2.1,2.4-4.5,3.8-7c0.7-1.3,1.4-2.6,2.2-4c0.4-0.7,0.8-1.4,1.1-2.1 c0.4-0.7,0.7-1.5,1.1-2.2c1.5-3,3.1-6.2,4.8-9.6c0.9-1.7,1.7-3.4,2.5-5.2c0.8-1.8,1.7-3.6,2.5-5.5c0.9-1.9,1.8-3.8,2.6-5.8 c0.8-2,1.7-4,2.6-6c0.9-2.1,1.8-4.1,2.6-6.3c0.9-2.1,1.7-4.3,2.6-6.5c1.7-4.4,3.5-8.9,5.2-13.6c1.7-4.7,3.5-9.5,5-14.4 c1.6-4.9,3.3-9.9,4.8-15c0.8-2.5,1.6-5.1,2.3-7.7c0.8-2.6,1.5-5.2,2.2-7.8c0.7-2.6,1.5-5.2,2.2-7.9c0.7-2.6,1.4-5.3,2.1-8 c1.4-5.3,2.7-10.7,4-16c0.7-2.7,1.3-5.4,1.9-8.1c0.6-2.7,1.2-5.4,1.8-8.1c1.1-5.4,2.2-10.7,3.3-16.1c2-10.7,3.9-21.2,5.5-31.3 s3-20.1,4.2-29.4c1.1-9.4,2.2-18.3,2.9-26.5c0.8-8.3,1.4-15.9,1.9-22.6c0.4-5.9,0.7-11.1,1-15.5L62-1L62-1z" fill="inherit"/><path d="M432-1c-0.2,4.2-0.3,9-0.4,14.5c-0.1,6.5-0.2,13.8-0.1,21.8c0,8,0.3,16.6,0.6,25.7 c0.4,9.2,0.8,18.8,1.5,28.7c0.7,10,1.6,20.3,2.7,30.6c0.6,5.2,1.2,10.5,1.8,15.8c0.3,2.6,0.7,5.3,1,7.9s0.7,5.3,1.1,7.9 c0.8,5.3,1.5,10.6,2.5,15.8c0.4,2.6,0.9,5.2,1.3,7.9c0.5,2.6,1,5.2,1.5,7.8c0.5,2.6,1,5.2,1.5,7.7c0.5,2.5,1.1,5.1,1.6,7.6 c1,5.1,2.2,10,3.4,14.9c1.1,4.9,2.4,9.6,3.6,14.3s2.6,9.2,3.8,13.6c0.7,2.2,1.2,4.4,1.9,6.5c0.7,2.1,1.4,4.2,2,6.3 c0.7,2.1,1.3,4.1,2,6.1s1.4,3.9,2,5.8c0.7,1.9,1.3,3.7,2,5.5c0.6,1.8,1.3,3.6,2,5.3c1.3,3.4,2.6,6.6,3.8,9.7 c0.3,0.8,0.6,1.5,0.9,2.2s0.6,1.4,0.9,2.1c0.6,1.4,1.2,2.7,1.8,4c1.1,2.6,2.2,5,3.1,7.1c1,2.1,3.2,5.2,3.2,5.2l4.8,5.6 c0,0-0.4,0.5-1.2,1.4c-0.8,0.9-2,2.2-3.4,3.9c-0.7,0.9-1.4,1.9-2.2,3c-0.4,0.5-0.8,1.1-1.2,1.7c-0.4,0.6-0.8,1.2-1.2,1.9 c-0.4,0.6-0.8,1.3-1.3,2c-0.4,0.7-0.9,1.4-1.3,2.2c-0.8,1.5-1.7,3.1-2.6,4.8c-0.8,1.7-1.6,3.5-2.4,5.4c-0.8,1.9-1.5,3.9-2.3,5.9 c-0.7,2-1.3,4.2-2,6.3c-0.6,2.2-1.2,4.5-1.8,6.7c-0.5,2.3-1,4.7-1.4,7.1c-0.2,1.2-0.4,2.4-0.6,3.6l-0.3,1.8l-0.2,1.9 c-0.3,2.5-0.7,5-0.8,7.5c-0.1,1.3-0.2,2.5-0.3,3.8l-0.2,3.8c-0.3,5.1-0.3,10.2-0.3,15.2c0.1,5,0.3,9.9,0.6,14.7 c0.1,1.2,0.2,2.4,0.3,3.5c0.1,1.2,0.2,2.3,0.3,3.5c0.2,2.3,0.5,4.5,0.7,6.7c0.5,4.4,1.1,8.5,1.7,12.2c1,6.2,2,11.5,2.9,15.6 c-12.4,0.2-25.9-2.2-37.8-6.2c0-2.3,0.1-4.8,0.2-7.4c0.1-4.2,0.4-8.8,0.7-13.6c0.2-2.4,0.4-4.9,0.6-7.4c0.1-1.3,0.3-2.5,0.4-3.8 c0.2-1.3,0.3-2.6,0.5-3.9c0.6-5.2,1.5-10.7,2.4-16.1c1-5.5,2.1-11,3.5-16.5l1-4.1c0.4-1.4,0.8-2.7,1.2-4.1c0.7-2.7,1.6-5.4,2.5-8 l0.7-2l0.7-2c0.5-1.3,1-2.6,1.4-3.9c1-2.6,2.1-5,3.1-7.5c1.1-2.4,2.3-4.8,3.4-7.1c1.2-2.3,2.4-4.5,3.6-6.6c1.3-2.1,2.5-4.1,3.8-6.1 c1.3-1.9,2.6-3.7,3.9-5.4s2.6-3.2,3.9-4.8c0.6-0.8,1.3-1.4,1.9-2.1c0.6-0.7,1.2-1.3,1.8-2c0.6-0.6,1.2-1.2,1.7-1.8 c0.6-0.5,1.2-1.1,1.7-1.6c1.1-1-2.1-4.8-3.8-7.7c-1.2-2.1-2.4-4.5-3.8-7c-0.7-1.3-1.4-2.6-2.2-4c-0.4-0.7-0.8-1.4-1.1-2.1 c-0.4-0.7-0.7-1.5-1.1-2.2c-1.5-3-3.1-6.2-4.8-9.6c-0.9-1.7-1.7-3.4-2.5-5.2c-0.8-1.8-1.7-3.6-2.5-5.5c-0.9-1.9-1.8-3.8-2.6-5.8 c-0.8-2-1.7-4-2.6-6c-0.9-2.1-1.8-4.1-2.6-6.3c-0.9-2.1-1.7-4.3-2.6-6.5c-1.7-4.4-3.5-8.9-5.2-13.6c-1.7-4.7-3.5-9.5-5-14.4 c-1.6-4.9-3.3-9.9-4.8-15c-0.8-2.5-1.6-5.1-2.3-7.7c-0.8-2.6-1.5-5.2-2.2-7.8c-0.7-2.6-1.5-5.2-2.2-7.9c-0.7-2.6-1.4-5.3-2.1-8 c-1.4-5.3-2.7-10.7-4-16c-0.7-2.7-1.3-5.4-1.9-8.1c-0.6-2.7-1.2-5.4-1.8-8.1c-1.1-5.4-2.2-10.7-3.3-16.1c-2-10.7-3.9-21.2-5.5-31.3 s-3-20.1-4.2-29.4c-1.1-9.4-2.2-18.3-2.9-26.5c-0.8-8.3-1.4-15.9-1.9-22.6c-0.4-5.9-0.7-11.1-1-15.5L432-1L432-1z" fill="inherit"/><path d="M247.8,71.4L247.8,71.4C248.1,71.4,247.8,71.4,247.8,71.4z" fill="inherit"/><path d="M368.1,8.7c-3.9,5.1-8.7,10.6-14.6,15.8c-0.7,0.6-1.5,1.3-2.2,1.9c-0.7,0.7-1.5,1.3-2.3,1.9 c-0.8,0.6-1.6,1.3-2.4,1.9c-0.8,0.6-1.7,1.2-2.5,1.9c-1.7,1.3-3.5,2.4-5.2,3.7c-0.9,0.6-1.8,1.2-2.8,1.8c-0.9,0.6-1.8,1.2-2.8,1.7 c-7.7,4.5-16.1,8.6-25.1,11.9c-1.1,0.4-2.3,0.8-3.4,1.2c-1.2,0.4-2.3,0.7-3.5,1.1c-1.2,0.4-2.3,0.7-3.5,1.1c-1.2,0.3-2.4,0.7-3.6,1 c-2.4,0.6-4.8,1.2-7.3,1.7c-1.2,0.3-2.4,0.5-3.7,0.8c-1.2,0.2-2.5,0.4-3.7,0.7c-1.2,0.2-2.5,0.4-3.7,0.6c-1.3,0.2-2.5,0.4-3.8,0.5 c-1.3,0.1-2.5,0.3-3.8,0.4l-1.9,0.2l-1.9,0.2l-3.8,0.3l-3.8,0.2c-2.6,0.2-5.1,0.1-7.7,0.1h-0.5h-0.1c0,0,0.2,0-0.1,0h0.1l0,0h-0.3 h-1h-2h-2c-0.3,0-0.7,0-1,0l-0.9-0.1c-2.5-0.1-4.9-0.2-7.5-0.5c-5.1-0.4-10.1-1.1-15.1-1.9c-2.5-0.5-5-0.9-7.4-1.5 c-1.2-0.3-2.4-0.5-3.6-0.8c-1.2-0.3-2.4-0.6-3.6-0.9c-4.8-1.3-9.4-2.7-13.9-4.4c-9-3.3-17.4-7.3-24.9-11.8c-1-0.5-1.9-1.1-2.8-1.7 c-0.9-0.6-1.8-1.1-2.7-1.7c-1.8-1.2-3.5-2.4-5.2-3.6c-0.8-0.6-1.7-1.2-2.5-1.8c-0.8-0.6-1.6-1.3-2.4-1.9c-1.6-1.2-3-2.6-4.5-3.8 c-1.5-1.3-2.8-2.6-4.2-3.9c-1.3-1.3-2.6-2.6-3.8-3.9c-2.4-2.6-4.6-5.2-6.5-7.7c-2.4-3.2-4.5-6.2-6.2-9h-11.5 c1.6,4.8,4,10.4,7.3,16.4c3.6,6.3,8.2,13.2,14.2,19.7c6,6.6,13.1,13.1,21.3,18.9c1,0.7,2.1,1.4,3.1,2.2c1.1,0.7,2.2,1.4,3.2,2.1 c2.2,1.4,4.4,2.7,6.7,4c4.6,2.6,9.4,4.9,14.5,7c2.5,1.1,5.1,2.1,7.7,3c1.3,0.5,2.6,0.9,3.9,1.3c1.3,0.4,2.6,0.9,4,1.3 c5.3,1.7,10.8,3,16.4,4.1c5.6,1,11.2,2,16.9,2.4c2.8,0.3,5.8,0.4,8.7,0.6l1.1,0.1h1h2h2h1h0.3h0.3h0.1h0.5c11.5-0.2,23-1.3,34-3.7 c11.1-2.3,21.8-5.8,31.6-10.2c10-4.3,19.1-9.8,27.1-15.7s15.1-12.5,20.9-19.2c5.8-6.7,10.3-13.5,13.7-19.9 c2.8-5.3,4.8-10.2,6.3-14.5h-8.9C372.3,2.7,370.4,5.7,368.1,8.7z" fill="inherit"/><path d="M234,27.7c-0.3,0,0.3,0,0.2,0H234L234,27.7L234,27.7L234,27.7z" fill="inherit"/><path d="M327.4,0.1c-1,0.8-2.1,1.8-3.3,2.7c-1.3,0.9-2.6,2-4,3.1c-1.5,1-3,2.1-4.7,3.3c-1.7,1.1-3.5,2.2-5.4,3.4 c-2,1.1-3.9,2.3-6,3.4c-2.2,1.1-4.3,2.3-6.7,3.3c-4.6,2.2-9.8,4-15.1,5.7c-5.4,1.7-11.1,2.9-17,3.9c-1.5,0.2-3,0.4-4.4,0.6 c-1.5,0.2-2.9,0.2-4.3,0.4l-2.1,0.2l-2.5,0.1l-2.5,0.1h-1.3H248l0,0h0.1c0.1,0-0.6,0-0.3,0h0.2l0,0h-0.6c-6.1,0-12.2-0.5-18.1-1.3 c-5.9-0.9-11.7-2.2-17.1-3.8c-1.4-0.4-2.7-0.9-4-1.3c-0.7-0.2-1.3-0.4-2-0.7c-0.6-0.2-1.3-0.5-1.9-0.7c-1.3-0.5-2.5-1-3.8-1.4 c-1.2-0.5-2.4-1.1-3.6-1.6c-0.6-0.3-1.2-0.5-1.8-0.8c-0.6-0.3-1.1-0.6-1.7-0.8c-1.1-0.6-2.2-1.1-3.3-1.7c-2.1-1.2-4.2-2.3-6.2-3.4 c-1.9-1.2-3.8-2.3-5.5-3.4c-1.7-1.2-3.4-2.2-4.8-3.3C172.3,5,171,4,169.7,3c-1.2-1-2.4-1.9-3.4-2.7c-0.1-0.1-0.1-0.1-0.2-0.2h-6 c0.2,0.4,0.4,0.7,0.6,1.1c0.3,0.5,0.7,1,1,1.6c0.7,1.1,1.5,2.3,2.4,3.7c0.9,1.3,2,2.6,3.2,4.1s2.6,2.9,4,4.5 c1.5,1.6,3.2,3.1,4.9,4.8c1.8,1.6,3.8,3.2,5.9,4.8c1.1,0.8,2.2,1.6,3.3,2.4c0.6,0.4,1.1,0.8,1.7,1.2c0.6,0.4,1.2,0.8,1.8,1.1 c4.9,3.2,10.5,5.9,16.6,8.5c6.2,2.4,12.9,4.5,20,5.9c3.6,0.6,7.1,1.3,10.8,1.6l2.8,0.3c0.9,0.1,1.8,0.2,2.8,0.2 c1.8,0.1,3.7,0.2,5.6,0.2h0.7h0.1h0.4h0.2h0.3h1.3l2.5-0.1l2.5-0.1l2.9-0.2c1.9-0.2,3.9-0.3,5.7-0.6c1.8-0.3,3.6-0.5,5.4-0.8 c1.8-0.3,3.5-0.7,5.3-1.1c0.9-0.2,1.7-0.4,2.6-0.6c0.9-0.2,1.7-0.5,2.5-0.7c1.7-0.5,3.4-0.9,5-1.4c1.6-0.6,3.2-1.1,4.8-1.7 c1.6-0.5,3.1-1.2,4.6-1.8s3-1.2,4.4-2c1.4-0.7,2.8-1.4,4.2-2.1c1.4-0.7,2.6-1.5,3.9-2.2c2.6-1.4,4.9-3,7.1-4.6 c1.1-0.7,2.1-1.6,3.2-2.4c1-0.8,2-1.5,3-2.3c1.8-1.6,3.6-3.1,5.2-4.7c1.5-1.6,3-3,4.3-4.4c1.2-1.5,2.4-2.8,3.4-4.1s1.8-2.5,2.6-3.6 c0.4-0.5,0.8-1.1,1.1-1.5c0.3-0.5,0.6-1,0.9-1.4c0.4-0.7,0.7-1.2,1-1.7L327.4,0.1C327.4,0,327.4,0,327.4,0.1z" fill="inherit"/></g><g fill="#CC9423" id="change5_1"><path d="M50.4,305.9c-0.1,0-11.3,1.8-24.1,1.2c-8.8-0.4-19.7-2-26.4-7v13.7c6.8,3,15.5,4.8,25.8,5.3 c2,0.1,3.9,0.1,5.8,0.1c11.3,0,20.3-1.4,20.7-1.5L50.4,305.9z" fill="inherit"/><path d="M443.6,305.9c0.1,0,11.3,1.8,24.1,1.2c8.8-0.4,19.7-2,26.4-7v13.7c-6.8,3-15.5,4.8-25.8,5.3 c-2,0.1-3.9,0.1-5.8,0.1c-11.3,0-20.3-1.4-20.7-1.5L443.6,305.9z" fill="inherit"/></g></svg>